<svg xmlns="http://www.w3.org/2000/svg" xmlns:xlink="http://www.w3.org/1999/xlink" width="250" zoomAndPan="magnify" viewBox="0 0 375 374.999991" height="150" preserveAspectRatio="xMidYMid meet" version="1.0"><defs><filter x="0%" y="0%" width="100%" height="100%" id="e04472ce50"><feColorMatrix values="0 0 0 0 1 0 0 0 0 1 0 0 0 0 1 0 0 0 1 0" color-interpolation-filters="sRGB"/></filter><g/><clipPath id="3132a7ce85"><path d="M 111 80.070312 L 265 80.070312 L 265 231 L 111 231 Z M 111 80.070312 " clip-rule="nonzero"/></clipPath><clipPath id="f1d64442e1"><path d="M 154.390625 129.761719 L 220.609375 129.761719 L 220.609375 187.84375 L 154.390625 187.84375 Z M 154.390625 129.761719 " clip-rule="nonzero"/></clipPath><clipPath id="cede2f565d"><path d="M 154.390625 146.894531 C 154.390625 165.34375 187.5 187.84375 187.5 187.84375 C 187.5 187.84375 220.460938 165.183594 220.609375 146.894531 C 220.609375 137.453125 212.914062 129.761719 203.472656 129.761719 C 196.214844 129.761719 189.964844 134.40625 187.5 140.792969 C 185.035156 134.40625 178.785156 129.761719 171.527344 129.761719 C 162.085938 129.761719 154.390625 137.453125 154.390625 146.894531 " clip-rule="nonzero"/></clipPath><mask id="1dfd479f25"><g filter="url(#e04472ce50)"><rect x="-37.5" width="450" fill="#000000" y="-37.499999" height="449.999989" fill-opacity="0.8196"/></g></mask><clipPath id="f1dfa7c2f0"><path d="M 0.152344 0.617188 L 52.847656 0.617188 L 52.847656 46.84375 L 0.152344 46.84375 Z M 0.152344 0.617188 " clip-rule="nonzero"/></clipPath><clipPath id="ebca27c1ca"><path d="M 0.152344 14.257812 C 0.152344 28.9375 26.5 46.84375 26.5 46.84375 C 26.5 46.84375 52.734375 28.8125 52.847656 14.257812 C 52.847656 6.742188 46.726562 0.617188 39.210938 0.617188 C 33.433594 0.617188 28.460938 4.316406 26.5 9.398438 C 24.539062 4.316406 19.566406 0.617188 13.789062 0.617188 C 6.273438 0.617188 0.152344 6.742188 0.152344 14.257812 " clip-rule="nonzero"/></clipPath><clipPath id="2ba9d22eb7"><rect x="0" width="54" y="0" height="47"/></clipPath></defs><path fill="#1b9ce4" d="M 138.449219 151.15625 C 138.449219 125.230469 159.46875 104.210938 185.394531 104.210938 C 197.25 104.210938 208.074219 108.605469 216.335938 115.855469 C 207.347656 101.921875 191.691406 92.695312 173.878906 92.695312 C 145.996094 92.695312 123.390625 115.300781 123.390625 143.183594 C 123.390625 167.410156 140.453125 187.648438 163.21875 192.542969 C 148.472656 184.625 138.449219 169.0625 138.449219 151.15625 " fill-opacity="1" fill-rule="nonzero"/><g clip-path="url(#3132a7ce85)"><path fill="#183e9f" d="M 233.882812 80.417969 C 232.957031 80.070312 232.546875 81.039062 232.386719 82.339844 C 232.078125 84.878906 233.09375 87.394531 235.019531 89.082031 C 255.148438 106.71875 251.242188 149.933594 238.085938 147.355469 C 229.449219 145.664062 238.648438 119.992188 231.445312 119.117188 C 226.664062 118.535156 222.414062 130.4375 222.71875 146.128906 C 222.890625 155.105469 225.773438 162.515625 228.308594 168.945312 C 231.976562 178.261719 228.605469 188.925781 220.167969 194.3125 C 193.3125 211.449219 157.246094 208.292969 133.789062 184.832031 C 121.398438 172.441406 114.671875 156.527344 113.613281 140.3125 C 108.429688 164.324219 115.191406 190.394531 133.902344 209.023438 C 157.484375 232.507812 195.136719 237.394531 223.957031 220.753906 C 251.3125 204.953125 262.753906 172.445312 264.382812 142.21875 C 266.453125 103.773438 244.386719 84.375 233.882812 80.417969 Z M 230.113281 101.457031 C 240.570312 110.644531 244.523438 126.742188 244.058594 139.703125 C 245.699219 135.683594 246.589844 129.796875 246.386719 123.496094 C 246.113281 115.070312 244.109375 107.179688 240.753906 100.785156 C 236.417969 96.613281 232.144531 93.972656 228.945312 92.765625 C 227.996094 92.410156 227.589844 93.429688 227.4375 94.777344 C 227.15625 97.304688 228.203125 99.777344 230.113281 101.457031 " fill-opacity="1" fill-rule="nonzero"/></g><g clip-path="url(#f1d64442e1)"><g clip-path="url(#cede2f565d)"><path fill="#183e9f" d="M 154.390625 129.761719 L 220.609375 129.761719 L 220.609375 187.84375 L 154.390625 187.84375 Z M 154.390625 129.761719 " fill-opacity="1" fill-rule="nonzero"/></g></g><g mask="url(#1dfd479f25)"><g transform="matrix(1, 0, 0, 1, 161, 141)"><g clip-path="url(#2ba9d22eb7)"><g clip-path="url(#f1dfa7c2f0)"><g clip-path="url(#ebca27c1ca)"><path fill="#54afe6" d="M 0.152344 0.617188 L 52.847656 0.617188 L 52.847656 46.84375 L 0.152344 46.84375 Z M 0.152344 0.617188 " fill-opacity="1" fill-rule="nonzero"/></g></g></g></g></g><g fill="#ffffff" fill-opacity="1"><g transform="translate(106.943363, 296.533867)"><g><path d="M 22.75 0 L 17.921875 0 L 17.921875 -11.4375 L 7.171875 -11.4375 L 7.171875 0 L 2.34375 0 L 2.34375 -23.484375 C 2.34375 -23.503906 2.300781 -23.675781 2.21875 -24 C 2.132812 -24.332031 2.050781 -24.671875 1.96875 -25.015625 C 1.894531 -25.367188 1.859375 -25.570312 1.859375 -25.625 L 7.171875 -25.625 L 7.171875 -14.90625 L 17.921875 -14.90625 L 17.921875 -25.625 L 22.75 -25.625 Z M 22.75 0 "/></g></g></g><g fill="#ffffff" fill-opacity="1"><g transform="translate(131.927725, 296.533867)"><g><path d="M 16.3125 -10.296875 C 16.3125 -8.890625 15.71875 -8.1875 14.53125 -8.1875 L 5.359375 -8.1875 C 5.359375 -6.695312 5.753906 -5.363281 6.546875 -4.1875 C 7.335938 -3.007812 8.445312 -2.421875 9.875 -2.421875 C 10.59375 -2.421875 11.34375 -2.59375 12.125 -2.9375 C 12.90625 -3.289062 13.566406 -3.734375 14.109375 -4.265625 L 15.890625 -1.46875 C 15.171875 -0.863281 14.21875 -0.398438 13.03125 -0.078125 C 11.851562 0.234375 10.726562 0.390625 9.65625 0.390625 C 6.945312 0.390625 4.8125 -0.421875 3.25 -2.046875 C 1.6875 -3.671875 0.90625 -5.847656 0.90625 -8.578125 C 0.90625 -11.160156 1.632812 -13.359375 3.09375 -15.171875 C 4.550781 -16.984375 6.539062 -17.890625 9.0625 -17.890625 C 11.351562 -17.890625 13.132812 -17.195312 14.40625 -15.8125 C 15.675781 -14.4375 16.3125 -12.597656 16.3125 -10.296875 Z M 11.9375 -11.71875 C 11.9375 -12.675781 11.691406 -13.460938 11.203125 -14.078125 C 10.710938 -14.703125 10.007812 -15.015625 9.09375 -15.015625 C 8.164062 -15.015625 7.335938 -14.582031 6.609375 -13.71875 C 5.890625 -12.851562 5.503906 -11.929688 5.453125 -10.953125 L 11.34375 -10.953125 C 11.738281 -10.953125 11.9375 -11.207031 11.9375 -11.71875 Z M 11.9375 -11.71875 "/></g></g></g><g fill="#ffffff" fill-opacity="1"><g transform="translate(149.213818, 296.533867)"><g><path d="M 18.0625 -0.671875 C 17.851562 -0.617188 17.53125 -0.519531 17.09375 -0.375 C 16.664062 -0.238281 16.3125 -0.128906 16.03125 -0.046875 C 15.75 0.0234375 15.414062 0.0976562 15.03125 0.171875 C 14.644531 0.242188 14.300781 0.28125 14 0.28125 C 13.300781 0.28125 12.707031 0.0664062 12.21875 -0.359375 C 11.726562 -0.796875 11.398438 -1.363281 11.234375 -2.0625 C 10.066406 -0.425781 8.316406 0.390625 5.984375 0.390625 C 4.554688 0.390625 3.375 -0.00390625 2.4375 -0.796875 C 1.507812 -1.597656 1.046875 -2.695312 1.046875 -4.09375 C 1.046875 -5.3125 1.335938 -6.335938 1.921875 -7.171875 C 2.503906 -8.015625 3.296875 -8.640625 4.296875 -9.046875 C 5.304688 -9.453125 6.3125 -9.742188 7.3125 -9.921875 C 8.3125 -10.097656 9.382812 -10.1875 10.53125 -10.1875 L 10.53125 -12.453125 C 10.53125 -13.367188 10.332031 -14.003906 9.9375 -14.359375 C 9.539062 -14.722656 8.898438 -14.90625 8.015625 -14.90625 C 6.773438 -14.90625 5.28125 -14.226562 3.53125 -12.875 L 1.8125 -15.640625 C 3.9375 -17.085938 6.296875 -17.8125 8.890625 -17.8125 C 10.753906 -17.8125 12.191406 -17.332031 13.203125 -16.375 C 14.222656 -15.414062 14.734375 -14.003906 14.734375 -12.140625 L 14.734375 -4.546875 C 14.734375 -3.378906 15.015625 -2.796875 15.578125 -2.796875 C 15.765625 -2.796875 16.347656 -2.9375 17.328125 -3.21875 Z M 10.53125 -6.515625 L 10.53125 -7.3125 C 7.125 -7.3125 5.421875 -6.378906 5.421875 -4.515625 C 5.421875 -4.003906 5.625 -3.59375 6.03125 -3.28125 C 6.445312 -2.976562 6.921875 -2.828125 7.453125 -2.828125 C 8.359375 -2.828125 9.097656 -3.207031 9.671875 -3.96875 C 10.242188 -4.726562 10.53125 -5.578125 10.53125 -6.515625 Z M 10.53125 -6.515625 "/></g></g></g><g fill="#ffffff" fill-opacity="1"><g transform="translate(166.499912, 296.533867)"><g><path d="M 6.46875 0 L 2.203125 0 L 2.203125 -25.03125 C 2.203125 -25.050781 2.171875 -25.203125 2.109375 -25.484375 C 2.054688 -25.765625 1.992188 -26.066406 1.921875 -26.390625 C 1.847656 -26.710938 1.8125 -26.890625 1.8125 -26.921875 L 6.46875 -26.921875 Z M 6.46875 0 "/></g></g></g><g fill="#ffffff" fill-opacity="1"><g transform="translate(175.282931, 296.533867)"><g><path d="M 11.4375 -0.390625 C 9.875 0.0976562 8.5 0.34375 7.3125 0.34375 C 5.800781 0.34375 4.691406 -0.00390625 3.984375 -0.703125 C 3.285156 -1.398438 2.9375 -2.519531 2.9375 -4.0625 L 2.9375 -14.625 L 0.0625 -14.625 L 0.0625 -16.9375 C 0.957031 -16.957031 1.753906 -17.269531 2.453125 -17.875 C 3.148438 -18.488281 3.671875 -19.179688 4.015625 -19.953125 C 4.367188 -20.722656 4.648438 -21.5625 4.859375 -22.46875 L 7.90625 -22.46875 C 7.4375 -20.488281 7.203125 -18.796875 7.203125 -17.390625 L 11.4375 -17.390625 L 10.609375 -14.625 L 7.203125 -14.625 L 7.203125 -5 C 7.203125 -3.4375 7.695312 -2.65625 8.6875 -2.65625 C 9.21875 -2.65625 9.972656 -2.773438 10.953125 -3.015625 Z M 11.4375 -0.390625 "/></g></g></g><g fill="#ffffff" fill-opacity="1"><g transform="translate(186.725351, 296.533867)"><g><path d="M 16.828125 0 L 12.59375 0 L 12.59375 -11.34375 C 12.59375 -11.988281 12.554688 -12.515625 12.484375 -12.921875 C 12.421875 -13.335938 12.210938 -13.710938 11.859375 -14.046875 C 11.515625 -14.390625 11.023438 -14.5625 10.390625 -14.5625 C 9.878906 -14.5625 9.21875 -14.34375 8.40625 -13.90625 C 7.601562 -13.476562 7.003906 -13.054688 6.609375 -12.640625 L 6.609375 0 L 2.453125 0 L 2.453125 -25.03125 L 2.03125 -26.921875 L 6.609375 -26.921875 L 6.609375 -15.75 C 8.335938 -17.175781 10.019531 -17.890625 11.65625 -17.890625 C 13.539062 -17.890625 14.875 -17.363281 15.65625 -16.3125 C 16.4375 -15.257812 16.828125 -13.742188 16.828125 -11.765625 Z M 16.828125 0 "/></g></g></g><g fill="#ffffff" fill-opacity="1"><g transform="translate(205.866029, 296.533867)"><g/></g></g><g fill="#ffffff" fill-opacity="1"><g transform="translate(213.914212, 296.533867)"><g><path d="M 17.21875 0 L 2.3125 0 L 2.3125 -23.484375 C 2.3125 -23.503906 2.273438 -23.675781 2.203125 -24 C 2.128906 -24.332031 2.050781 -24.671875 1.96875 -25.015625 C 1.894531 -25.367188 1.859375 -25.570312 1.859375 -25.625 L 7.171875 -25.625 L 7.171875 -3.46875 L 17.21875 -3.46875 Z M 17.21875 0 "/></g></g></g><g fill="#ffffff" fill-opacity="1"><g transform="translate(231.900146, 296.533867)"><g><path d="M 6.46875 0 L 2.28125 0 L 2.28125 -15.5 C 2.28125 -15.53125 2.25 -15.679688 2.1875 -15.953125 C 2.125 -16.234375 2.054688 -16.535156 1.984375 -16.859375 C 1.921875 -17.191406 1.890625 -17.367188 1.890625 -17.390625 L 6.46875 -17.390625 Z M 6.265625 -25.65625 C 6.796875 -25.113281 7.0625 -24.46875 7.0625 -23.71875 C 7.0625 -22.976562 6.800781 -22.34375 6.28125 -21.8125 C 5.757812 -21.289062 5.125 -21.03125 4.375 -21.03125 C 3.625 -21.03125 2.988281 -21.289062 2.46875 -21.8125 C 1.945312 -22.34375 1.6875 -22.976562 1.6875 -23.71875 C 1.6875 -24.46875 1.945312 -25.109375 2.46875 -25.640625 C 2.988281 -26.179688 3.625 -26.453125 4.375 -26.453125 C 5.125 -26.453125 5.753906 -26.1875 6.265625 -25.65625 Z M 6.265625 -25.65625 "/></g></g></g><g fill="#ffffff" fill-opacity="1"><g transform="translate(240.683165, 296.533867)"><g><path d="M 14.28125 -26.359375 L 13.15625 -23.515625 C 12.4375 -24.035156 11.710938 -24.296875 10.984375 -24.296875 C 10.148438 -24.296875 9.457031 -24.101562 8.90625 -23.71875 C 8.351562 -23.332031 7.960938 -22.773438 7.734375 -22.046875 C 7.503906 -21.328125 7.351562 -20.660156 7.28125 -20.046875 C 7.207031 -19.441406 7.171875 -18.722656 7.171875 -17.890625 L 7.171875 -17.390625 L 11.4375 -17.390625 L 10.640625 -14.59375 L 7.171875 -14.59375 L 7.171875 0.03125 L 2.96875 0.03125 L 2.96875 -14.59375 L 0.109375 -14.59375 L 0.109375 -17.078125 C 1.859375 -17.078125 2.835938 -17.59375 3.046875 -18.625 C 3.117188 -18.90625 3.222656 -19.425781 3.359375 -20.1875 C 3.492188 -20.957031 3.601562 -21.476562 3.6875 -21.75 C 3.769531 -22.019531 3.910156 -22.414062 4.109375 -22.9375 C 4.304688 -23.46875 4.554688 -23.925781 4.859375 -24.3125 C 5.160156 -24.695312 5.546875 -25.109375 6.015625 -25.546875 C 7.234375 -26.617188 8.832031 -27.15625 10.8125 -27.15625 C 12.257812 -27.15625 13.414062 -26.890625 14.28125 -26.359375 Z M 14.28125 -26.359375 "/></g></g></g><g fill="#ffffff" fill-opacity="1"><g transform="translate(250.760889, 296.533867)"><g><path d="M 16.3125 -10.296875 C 16.3125 -8.890625 15.71875 -8.1875 14.53125 -8.1875 L 5.359375 -8.1875 C 5.359375 -6.695312 5.753906 -5.363281 6.546875 -4.1875 C 7.335938 -3.007812 8.445312 -2.421875 9.875 -2.421875 C 10.59375 -2.421875 11.34375 -2.59375 12.125 -2.9375 C 12.90625 -3.289062 13.566406 -3.734375 14.109375 -4.265625 L 15.890625 -1.46875 C 15.171875 -0.863281 14.21875 -0.398438 13.03125 -0.078125 C 11.851562 0.234375 10.726562 0.390625 9.65625 0.390625 C 6.945312 0.390625 4.8125 -0.421875 3.25 -2.046875 C 1.6875 -3.671875 0.90625 -5.847656 0.90625 -8.578125 C 0.90625 -11.160156 1.632812 -13.359375 3.09375 -15.171875 C 4.550781 -16.984375 6.539062 -17.890625 9.0625 -17.890625 C 11.351562 -17.890625 13.132812 -17.195312 14.40625 -15.8125 C 15.675781 -14.4375 16.3125 -12.597656 16.3125 -10.296875 Z M 11.9375 -11.71875 C 11.9375 -12.675781 11.691406 -13.460938 11.203125 -14.078125 C 10.710938 -14.703125 10.007812 -15.015625 9.09375 -15.015625 C 8.164062 -15.015625 7.335938 -14.582031 6.609375 -13.71875 C 5.890625 -12.851562 5.503906 -11.929688 5.453125 -10.953125 L 11.34375 -10.953125 C 11.738281 -10.953125 11.9375 -11.207031 11.9375 -11.71875 Z M 11.9375 -11.71875 "/></g></g></g></svg>